<svg width="359" height="354" viewBox="0 0 359 354" fill="none" xmlns="http://www.w3.org/2000/svg">
<ellipse cx="179.5" cy="177" rx="179.5" ry="177" fill="#EEB523"/>
<path d="M304.877 166.322C303.51 168.829 301.117 173.386 297.699 179.994C294.509 186.602 290.066 194.122 284.369 202.553C278.9 210.756 272.292 219.301 264.545 228.188C256.798 237.074 247.911 245.277 237.885 252.797C227.859 260.089 216.579 266.127 204.047 270.912C191.742 275.697 178.298 278.09 163.715 278.09C150.727 278.09 139.219 275.697 129.193 270.912C119.167 266.355 110.622 259.861 103.559 251.43C96.4948 242.771 91.14 232.631 87.4941 221.01C83.8483 209.389 82.0254 196.514 82.0254 182.387C82.0254 168.715 83.9622 155.954 87.8359 144.105C91.7096 132.029 96.9505 121.547 103.559 112.66C110.395 103.773 118.256 96.8236 127.143 91.8105C136.029 86.5697 145.486 83.9492 155.512 83.9492C163.031 83.9492 169.867 85.3164 176.02 88.0508C182.172 90.5573 187.299 93.9753 191.4 98.3047C195.73 102.634 199.034 107.419 201.312 112.66C203.819 117.901 205.072 123.142 205.072 128.383C205.072 133.396 204.389 138.067 203.021 142.396C201.882 146.726 200.287 150.6 198.236 154.018C196.413 157.208 194.249 159.828 191.742 161.879C189.236 163.702 186.729 164.613 184.223 164.613C180.349 164.613 177.159 163.36 174.652 160.854C172.374 158.347 171.234 155.271 171.234 151.625C171.234 149.802 171.576 148.207 172.26 146.84C173.171 145.473 174.083 144.105 174.994 142.738C176.133 141.143 177.045 139.32 177.729 137.27C178.64 134.991 179.096 132.143 179.096 128.725C179.096 123.939 176.817 119.61 172.26 115.736C167.93 111.863 162.348 109.926 155.512 109.926C149.132 109.926 142.979 111.863 137.055 115.736C131.358 119.61 126.345 124.851 122.016 131.459C117.686 137.839 114.154 145.473 111.42 154.359C108.913 163.018 107.66 172.247 107.66 182.045C107.66 191.387 108.799 200.274 111.078 208.705C113.357 217.136 116.775 224.656 121.332 231.264C125.889 237.644 131.586 242.771 138.422 246.645C145.486 250.518 153.803 252.455 163.373 252.455C175.678 252.455 187.071 250.29 197.553 245.961C208.035 241.404 217.605 235.707 226.264 228.871C234.923 222.035 242.556 214.63 249.164 206.654C255.772 198.451 261.355 190.818 265.912 183.754C270.697 176.462 274.343 170.196 276.85 164.955C279.584 159.486 281.179 156.068 281.635 154.701C282.546 152.423 284.027 150.714 286.078 149.574C288.357 148.207 290.749 147.523 293.256 147.523C297.13 147.523 300.206 148.891 302.484 151.625C304.991 154.359 306.244 157.436 306.244 160.854C306.244 162.221 305.788 164.044 304.877 166.322Z" fill="black"/>
</svg>
