<svg width="560" height="338" viewBox="0 0 560 338" fill="none" xmlns="http://www.w3.org/2000/svg">
<ellipse cx="147.5" cy="187" rx="147.5" ry="151" fill="#EEB523"/>
<path d="M254.395 170.848C253.223 172.996 251.172 176.902 248.242 182.566C245.508 188.23 241.699 194.676 236.816 201.902C232.129 208.934 226.465 216.258 219.824 223.875C213.184 231.492 205.566 238.523 196.973 244.969C188.379 251.219 178.711 256.395 167.969 260.496C157.422 264.598 145.898 266.648 133.398 266.648C122.266 266.648 112.402 264.598 103.809 260.496C95.2148 256.59 87.8906 251.023 81.8359 243.797C75.7812 236.375 71.1914 227.684 68.0664 217.723C64.9414 207.762 63.3789 196.727 63.3789 184.617C63.3789 172.898 65.0391 161.961 68.3594 151.805C71.6797 141.453 76.1719 132.469 81.8359 124.852C87.6953 117.234 94.4336 111.277 102.051 106.98C109.668 102.488 117.773 100.242 126.367 100.242C132.812 100.242 138.672 101.414 143.945 103.758C149.219 105.906 153.613 108.836 157.129 112.547C160.84 116.258 163.672 120.359 165.625 124.852C167.773 129.344 168.848 133.836 168.848 138.328C168.848 142.625 168.262 146.629 167.09 150.34C166.113 154.051 164.746 157.371 162.988 160.301C161.426 163.035 159.57 165.281 157.422 167.039C155.273 168.602 153.125 169.383 150.977 169.383C147.656 169.383 144.922 168.309 142.773 166.16C140.82 164.012 139.844 161.375 139.844 158.25C139.844 156.688 140.137 155.32 140.723 154.148C141.504 152.977 142.285 151.805 143.066 150.633C144.043 149.266 144.824 147.703 145.41 145.945C146.191 143.992 146.582 141.551 146.582 138.621C146.582 134.52 144.629 130.809 140.723 127.488C137.012 124.168 132.227 122.508 126.367 122.508C120.898 122.508 115.625 124.168 110.547 127.488C105.664 130.809 101.367 135.301 97.6562 140.965C93.9453 146.434 90.918 152.977 88.5742 160.594C86.4258 168.016 85.3516 175.926 85.3516 184.324C85.3516 192.332 86.3281 199.949 88.2812 207.176C90.2344 214.402 93.1641 220.848 97.0703 226.512C100.977 231.98 105.859 236.375 111.719 239.695C117.773 243.016 124.902 244.676 133.105 244.676C143.652 244.676 153.418 242.82 162.402 239.109C171.387 235.203 179.59 230.32 187.012 224.461C194.434 218.602 200.977 212.254 206.641 205.418C212.305 198.387 217.09 191.844 220.996 185.789C225.098 179.539 228.223 174.168 230.371 169.676C232.715 164.988 234.082 162.059 234.473 160.887C235.254 158.934 236.523 157.469 238.281 156.492C240.234 155.32 242.285 154.734 244.434 154.734C247.754 154.734 250.391 155.906 252.344 158.25C254.492 160.594 255.566 163.23 255.566 166.16C255.566 167.332 255.176 168.895 254.395 170.848Z" fill="black"/>
<path d="M354.277 179.949C353.561 181.447 352.65 183.237 351.543 185.32C350.501 187.339 349.297 189.454 347.93 191.668C346.562 193.882 345.033 196.095 343.34 198.309C341.647 200.457 339.792 202.41 337.773 204.168C335.82 205.861 333.704 207.228 331.426 208.27C329.212 209.376 326.836 209.93 324.297 209.93C320.391 209.93 317.038 208.725 314.238 206.316C311.439 203.908 309.062 200.75 307.109 196.844C305.156 192.938 303.561 188.51 302.324 183.562C301.152 178.549 300.241 173.471 299.59 168.328C298.939 163.12 298.483 158.074 298.223 153.191C298.027 148.309 297.93 143.979 297.93 140.203C297.93 134.734 298.092 129.07 298.418 123.211C298.809 117.352 299.395 111.622 300.176 106.023C300.957 100.424 301.934 95.1185 303.105 90.1055C304.342 85.0924 305.775 80.6979 307.402 76.9219C309.095 73.1458 311.016 70.151 313.164 67.9375C315.312 65.724 317.754 64.6172 320.488 64.6172C322.637 64.6172 324.557 65.138 326.25 66.1797C328.008 67.1562 329.473 68.7839 330.645 71.0625C331.816 73.3411 332.728 76.3034 333.379 79.9492C334.03 83.5951 334.355 88.0547 334.355 93.3281C334.355 99.8385 333.672 106.577 332.305 113.543C330.938 120.444 329.082 127.41 326.738 134.441C324.395 141.473 321.628 148.504 318.438 155.535C315.247 162.501 311.829 169.305 308.184 175.945C309.811 184.214 311.992 190.724 314.727 195.477C317.461 200.164 320.749 202.508 324.59 202.508C327.194 202.508 329.701 201.499 332.109 199.48C334.518 197.397 336.732 194.956 338.75 192.156C340.768 189.357 342.526 186.525 344.023 183.66C345.586 180.73 346.79 178.387 347.637 176.629C347.962 175.978 348.418 175.49 349.004 175.164C349.59 174.773 350.241 174.578 350.957 174.578C352.064 174.578 352.943 174.969 353.594 175.75C354.31 176.531 354.668 177.41 354.668 178.387C354.668 178.777 354.538 179.298 354.277 179.949ZM305.352 140.691C305.352 144.858 305.449 148.862 305.645 152.703C305.84 156.544 306.1 160.223 306.426 163.738C309.16 158.465 311.764 152.866 314.238 146.941C316.712 140.952 318.893 134.93 320.781 128.875C322.669 122.755 324.167 116.701 325.273 110.711C326.445 104.656 327.031 98.8945 327.031 93.4258C327.031 85.7435 326.413 80.2422 325.176 76.9219C323.939 73.6016 322.279 71.9414 320.195 71.9414C318.828 71.9414 317.493 72.8854 316.191 74.7734C314.954 76.6615 313.783 79.2331 312.676 82.4883C311.569 85.7435 310.56 89.5846 309.648 94.0117C308.737 98.4388 307.956 103.191 307.305 108.27C306.719 113.348 306.23 118.654 305.84 124.188C305.514 129.721 305.352 135.223 305.352 140.691ZM363.652 130.34C363.652 132.814 362.773 134.93 361.016 136.688C359.323 138.38 357.24 139.227 354.766 139.227C352.292 139.227 350.176 138.38 348.418 136.688C346.725 134.93 345.879 132.814 345.879 130.34C345.879 129.103 346.107 127.964 346.562 126.922C347.018 125.815 347.637 124.871 348.418 124.09C349.264 123.243 350.208 122.592 351.25 122.137C352.357 121.681 353.529 121.453 354.766 121.453C356.003 121.453 357.142 121.681 358.184 122.137C359.29 122.592 360.234 123.243 361.016 124.09C361.862 124.871 362.513 125.815 362.969 126.922C363.424 127.964 363.652 129.103 363.652 130.34ZM347.832 187.566C347.832 178.191 348.418 168.849 349.59 159.539C349.72 158.628 350.111 157.846 350.762 157.195C351.478 156.479 352.389 156.121 353.496 156.121C354.473 156.121 355.286 156.512 355.938 157.293C356.589 158.009 356.914 158.855 356.914 159.832C356.914 160.223 356.816 161.395 356.621 163.348C356.491 165.301 356.296 167.645 356.035 170.379C355.84 173.048 355.645 175.913 355.449 178.973C355.319 181.967 355.254 184.734 355.254 187.273C355.254 190.724 355.579 193.523 356.23 195.672C356.947 197.755 357.826 199.383 358.867 200.555C359.974 201.727 361.113 202.508 362.285 202.898C363.522 203.289 364.694 203.484 365.801 203.484C367.624 203.484 369.512 202.833 371.465 201.531C373.418 200.229 375.404 198.406 377.422 196.062C379.505 193.719 381.589 190.919 383.672 187.664C385.755 184.344 387.806 180.665 389.824 176.629C390.15 175.978 390.605 175.49 391.191 175.164C391.777 174.773 392.428 174.578 393.145 174.578C394.186 174.578 395.033 174.969 395.684 175.75C396.4 176.531 396.758 177.378 396.758 178.289C396.758 178.94 396.628 179.493 396.367 179.949C395.586 181.447 394.609 183.27 393.438 185.418C392.266 187.566 390.931 189.78 389.434 192.059C387.936 194.337 386.276 196.616 384.453 198.895C382.695 201.108 380.807 203.126 378.789 204.949C376.771 206.707 374.655 208.139 372.441 209.246C370.228 210.353 367.982 210.906 365.703 210.906C362.773 210.906 360.202 210.288 357.988 209.051C355.775 207.814 353.887 206.154 352.324 204.07C350.827 201.987 349.688 199.546 348.906 196.746C348.19 193.882 347.832 190.822 347.832 187.566ZM358.184 130.34C358.184 129.428 357.826 128.647 357.109 127.996C356.458 127.28 355.677 126.922 354.766 126.922C353.854 126.922 353.073 127.28 352.422 127.996C351.771 128.647 351.445 129.428 351.445 130.34C351.445 131.251 351.771 132.033 352.422 132.684C353.073 133.335 353.854 133.66 354.766 133.66C355.677 133.66 356.458 133.335 357.109 132.684C357.826 132.033 358.184 131.251 358.184 130.34ZM453.594 179.949C453.203 180.665 452.52 181.967 451.543 183.855C450.632 185.743 449.362 187.892 447.734 190.301C446.172 192.645 444.284 195.086 442.07 197.625C439.857 200.164 437.318 202.508 434.453 204.656C431.589 206.74 428.366 208.465 424.785 209.832C421.27 211.199 417.428 211.883 413.262 211.883C409.551 211.883 406.263 211.199 403.398 209.832C400.534 208.53 398.092 206.674 396.074 204.266C394.056 201.792 392.526 198.895 391.484 195.574C390.443 192.254 389.922 188.576 389.922 184.539C389.922 180.633 390.475 176.987 391.582 173.602C392.689 170.151 394.186 167.156 396.074 164.617C398.027 162.078 400.273 160.092 402.812 158.66C405.352 157.163 408.053 156.414 410.918 156.414C413.066 156.414 415.02 156.805 416.777 157.586C418.535 158.302 420 159.279 421.172 160.516C422.409 161.753 423.353 163.12 424.004 164.617C424.72 166.115 425.078 167.612 425.078 169.109C425.078 170.542 424.883 171.876 424.492 173.113C424.167 174.35 423.711 175.457 423.125 176.434C422.604 177.345 421.986 178.094 421.27 178.68C420.553 179.201 419.837 179.461 419.121 179.461C418.014 179.461 417.103 179.103 416.387 178.387C415.736 177.671 415.41 176.792 415.41 175.75C415.41 175.229 415.508 174.773 415.703 174.383C415.964 173.992 416.224 173.602 416.484 173.211C416.81 172.755 417.07 172.234 417.266 171.648C417.526 170.997 417.656 170.184 417.656 169.207C417.656 167.84 417.005 166.603 415.703 165.496C414.466 164.389 412.871 163.836 410.918 163.836C409.095 163.836 407.337 164.389 405.645 165.496C404.017 166.603 402.585 168.1 401.348 169.988C400.111 171.811 399.102 173.992 398.32 176.531C397.604 179.005 397.246 181.642 397.246 184.441C397.246 187.111 397.572 189.65 398.223 192.059C398.874 194.467 399.85 196.616 401.152 198.504C402.454 200.327 404.082 201.792 406.035 202.898C408.053 204.005 410.43 204.559 413.164 204.559C416.68 204.559 419.935 203.94 422.93 202.703C425.924 201.401 428.659 199.773 431.133 197.82C433.607 195.867 435.788 193.751 437.676 191.473C439.564 189.129 441.159 186.948 442.461 184.93C443.828 182.846 444.87 181.056 445.586 179.559C446.367 177.996 446.823 177.02 446.953 176.629C447.214 175.978 447.637 175.49 448.223 175.164C448.874 174.773 449.557 174.578 450.273 174.578C451.38 174.578 452.259 174.969 452.91 175.75C453.626 176.531 453.984 177.41 453.984 178.387C453.984 178.777 453.854 179.298 453.594 179.949ZM471.562 194.988C472.669 197.462 474.492 199.448 477.031 200.945C479.57 202.378 482.435 203.094 485.625 203.094C486.602 203.094 488.197 202.964 490.41 202.703C492.624 202.378 495.163 201.401 498.027 199.773C500.957 198.081 504.049 195.444 507.305 191.863C510.56 188.283 513.717 183.237 516.777 176.727C517.103 176.01 517.559 175.49 518.145 175.164C518.73 174.773 519.382 174.578 520.098 174.578C521.204 174.578 522.083 174.969 522.734 175.75C523.451 176.531 523.809 177.378 523.809 178.289C523.809 178.68 523.678 179.201 523.418 179.852C521.139 184.604 518.6 188.868 515.801 192.645C513.001 196.355 509.974 199.546 506.719 202.215C503.464 204.819 500.046 206.805 496.465 208.172C492.949 209.604 489.336 210.32 485.625 210.32C482.695 210.32 479.928 209.865 477.324 208.953C474.785 208.042 472.572 206.837 470.684 205.34C468.861 203.777 467.396 202.052 466.289 200.164C465.247 198.211 464.727 196.225 464.727 194.207C464.727 193.947 464.759 193.589 464.824 193.133C464.889 192.677 465.052 192.189 465.312 191.668C465.638 191.082 466.061 190.561 466.582 190.105C467.168 189.585 467.949 189.161 468.926 188.836C471.595 188.055 474.036 187.111 476.25 186.004C478.529 184.832 480.482 183.53 482.109 182.098C483.737 180.665 485.007 179.103 485.918 177.41C486.829 175.652 487.285 173.764 487.285 171.746C487.285 169.988 486.699 168.556 485.527 167.449C484.355 166.342 482.923 165.789 481.23 165.789C479.473 165.789 477.747 166.408 476.055 167.645C474.362 168.816 472.702 170.411 471.074 172.43C469.512 174.383 468.014 176.661 466.582 179.266C465.15 181.805 463.815 184.474 462.578 187.273C461.406 190.073 460.365 192.872 459.453 195.672C458.542 198.406 457.793 200.945 457.207 203.289C457.012 204.005 456.784 204.786 456.523 205.633C456.328 206.479 456.003 207.26 455.547 207.977C455.091 208.758 454.538 209.376 453.887 209.832C453.236 210.353 452.389 210.613 451.348 210.613C450.371 210.613 449.427 210.19 448.516 209.344C447.604 208.562 447.148 207.195 447.148 205.242C447.148 204.852 447.148 203.354 447.148 200.75C447.214 198.146 447.279 194.76 447.344 190.594C447.409 186.362 447.474 181.544 447.539 176.141C447.669 170.672 447.767 164.91 447.832 158.855C447.897 152.736 447.995 146.453 448.125 140.008C448.255 133.562 448.353 127.28 448.418 121.16C448.483 115.04 448.548 109.246 448.613 103.777C448.743 98.2435 448.841 93.3607 448.906 89.1289C448.971 84.832 449.004 81.349 449.004 78.6797C449.069 75.9453 449.102 74.3177 449.102 73.7969C449.102 72.7552 449.492 71.9089 450.273 71.2578C451.055 70.5417 451.901 70.1836 452.812 70.1836C453.854 70.1836 454.733 70.5417 455.449 71.2578C456.165 71.9089 456.523 72.7878 456.523 73.8945C456.523 74.0247 456.491 75.3268 456.426 77.8008C456.426 80.2096 456.393 83.4648 456.328 87.5664C456.263 91.668 456.165 96.4531 456.035 101.922C455.97 107.391 455.872 113.217 455.742 119.402C455.677 125.522 455.579 131.837 455.449 138.348C455.384 144.858 455.286 151.206 455.156 157.391C455.091 163.576 455.026 169.467 454.961 175.066C454.896 180.665 454.831 185.613 454.766 189.91C455.807 186.59 457.142 183.107 458.77 179.461C460.397 175.75 462.318 172.332 464.531 169.207C466.745 166.082 469.219 163.51 471.953 161.492C474.753 159.474 477.845 158.465 481.23 158.465C483.118 158.465 484.876 158.823 486.504 159.539C488.132 160.19 489.531 161.134 490.703 162.371C491.94 163.543 492.884 164.943 493.535 166.57C494.251 168.198 494.609 169.956 494.609 171.844C494.609 174.773 493.958 177.475 492.656 179.949C491.354 182.358 489.629 184.539 487.48 186.492C485.332 188.38 482.858 190.04 480.059 191.473C477.324 192.905 474.492 194.077 471.562 194.988Z" fill="white"/>
<g style="mix-blend-mode:difference">
<path d="M247.275 233.934C247.08 234.454 246.836 235.04 246.543 235.691C246.283 236.342 245.973 237.026 245.615 237.742C245.322 238.296 245.013 238.735 244.688 239.061C244.395 239.354 244.004 239.5 243.516 239.5C242.962 239.5 242.523 239.337 242.197 239.012C241.872 238.654 241.709 238.247 241.709 237.791C241.709 237.628 241.725 237.498 241.758 237.4C241.79 237.27 241.872 237.075 242.002 236.814C242.848 235.187 243.467 233.771 243.857 232.566C244.281 231.329 244.622 230.044 244.883 228.709C244.655 227.96 244.492 227.326 244.395 226.805C244.297 226.284 244.248 225.747 244.248 225.193C244.248 224.119 244.476 223.257 244.932 222.605C245.387 221.922 246.022 221.58 246.836 221.58C247.585 221.58 248.171 221.906 248.594 222.557C249.049 223.208 249.277 224.005 249.277 224.949C249.277 225.47 249.229 225.991 249.131 226.512C249.033 227.033 248.903 227.684 248.74 228.465C249.489 230.32 250.238 231.964 250.986 233.396C251.735 234.829 252.402 236.147 252.988 237.352C253.574 238.523 254.046 239.63 254.404 240.672C254.795 241.714 254.99 242.755 254.99 243.797C254.99 245.164 254.714 246.466 254.16 247.703C253.607 248.94 252.695 249.982 251.426 250.828C251.589 250.861 251.751 250.877 251.914 250.877C252.077 250.877 252.24 250.877 252.402 250.877C254.258 250.877 255.967 250.454 257.529 249.607C259.092 248.761 260.492 247.671 261.729 246.336C262.998 244.969 264.121 243.471 265.098 241.844C266.074 240.184 266.921 238.54 267.637 236.912C267.962 236.163 268.418 235.789 269.004 235.789C269.557 235.789 269.98 235.984 270.273 236.375C270.599 236.766 270.762 237.189 270.762 237.645C270.762 237.905 270.713 238.149 270.615 238.377C270.257 239.256 269.785 240.265 269.199 241.404C268.646 242.511 267.962 243.667 267.148 244.871C266.367 246.043 265.456 247.199 264.414 248.338C263.372 249.477 262.201 250.503 260.898 251.414C259.629 252.293 258.229 252.993 256.699 253.514C255.169 254.067 253.493 254.344 251.67 254.344C249.489 254.344 247.454 253.953 245.566 253.172C243.711 252.423 242.197 251.17 241.025 249.412C240.83 249.119 240.732 248.81 240.732 248.484C240.732 247.996 240.911 247.573 241.27 247.215C241.66 246.824 242.1 246.629 242.588 246.629C243.109 246.629 243.548 246.808 243.906 247.166C243.939 247.231 244.053 247.345 244.248 247.508C244.443 247.638 244.671 247.801 244.932 247.996C245.225 248.159 245.55 248.305 245.908 248.436C246.299 248.566 246.689 248.631 247.08 248.631C247.861 248.631 248.512 248.468 249.033 248.143C249.587 247.817 250.026 247.426 250.352 246.971C250.677 246.482 250.905 245.978 251.035 245.457C251.198 244.904 251.279 244.432 251.279 244.041C251.279 243.227 251.149 242.413 250.889 241.6C250.628 240.786 250.286 239.972 249.863 239.158C249.473 238.344 249.033 237.514 248.545 236.668C248.089 235.789 247.666 234.878 247.275 233.934ZM271.104 247.85C271.624 246.743 272.227 245.555 272.91 244.285C273.594 242.983 274.326 241.665 275.107 240.33C275.889 238.963 276.719 237.612 277.598 236.277C278.477 234.943 279.388 233.689 280.332 232.518C281.276 231.378 282.22 230.564 283.164 230.076C284.141 229.555 285.052 229.295 285.898 229.295C286.745 229.295 287.477 229.474 288.096 229.832C288.747 230.158 289.268 230.613 289.658 231.199C290.081 231.785 290.391 232.469 290.586 233.25C290.814 234.031 290.928 234.878 290.928 235.789C290.928 236.538 290.846 237.547 290.684 238.816C290.553 240.053 290.488 241.355 290.488 242.723C290.488 243.504 290.521 244.285 290.586 245.066C290.684 245.815 290.83 246.499 291.025 247.117C291.253 247.703 291.579 248.191 292.002 248.582C292.425 248.94 292.979 249.119 293.662 249.119C294.443 249.119 295.225 248.908 296.006 248.484C296.787 248.029 297.552 247.443 298.301 246.727C299.049 245.978 299.766 245.164 300.449 244.285C301.133 243.374 301.751 242.479 302.305 241.6C302.858 240.688 303.346 239.826 303.77 239.012C304.193 238.165 304.535 237.465 304.795 236.912C305.12 236.163 305.69 235.789 306.504 235.789C307.057 235.789 307.497 235.984 307.822 236.375C308.148 236.766 308.311 237.189 308.311 237.645C308.311 237.905 308.262 238.149 308.164 238.377C308.034 238.637 307.773 239.174 307.383 239.988C307.025 240.802 306.52 241.746 305.869 242.82C305.251 243.895 304.518 245.018 303.672 246.189C302.826 247.361 301.882 248.452 300.84 249.461C299.831 250.438 298.724 251.251 297.52 251.902C296.348 252.521 295.111 252.83 293.809 252.83C292.311 252.83 291.107 252.521 290.195 251.902C289.284 251.251 288.568 250.438 288.047 249.461C287.559 248.484 287.217 247.394 287.021 246.189C286.859 244.985 286.777 243.813 286.777 242.674C286.777 242.088 286.794 241.469 286.826 240.818C286.891 240.135 286.956 239.467 287.021 238.816C287.087 238.165 287.135 237.563 287.168 237.01C287.233 236.424 287.266 235.936 287.266 235.545C287.266 234.536 287.119 233.852 286.826 233.494C286.566 233.136 286.257 232.957 285.898 232.957C285.378 232.957 284.775 233.266 284.092 233.885C283.441 234.471 282.741 235.252 281.992 236.229C281.276 237.205 280.544 238.312 279.795 239.549C279.079 240.753 278.379 241.958 277.695 243.162C277.012 244.367 276.393 245.522 275.84 246.629C275.286 247.703 274.831 248.598 274.473 249.314C273.789 250.682 273.089 251.593 272.373 252.049C271.689 252.537 271.071 252.781 270.518 252.781C269.508 252.781 268.727 252.391 268.174 251.609C267.653 250.796 267.393 249.819 267.393 248.68V245.604C267.393 239.451 267.393 233.592 267.393 228.025C267.425 222.426 267.507 217.234 267.637 212.449C267.799 207.632 268.044 203.286 268.369 199.412C268.727 195.506 269.248 192.186 269.932 189.451C270.615 186.684 271.478 184.552 272.52 183.055C273.594 181.557 274.928 180.809 276.523 180.809C277.891 180.809 279.046 181.183 279.99 181.932C280.934 182.68 281.699 183.706 282.285 185.008C282.871 186.277 283.294 187.775 283.555 189.5C283.815 191.193 283.945 192.983 283.945 194.871C283.945 198.712 283.587 202.488 282.871 206.199C282.188 209.878 281.26 213.475 280.088 216.99C278.916 220.506 277.549 223.94 275.986 227.293C274.424 230.613 272.78 233.852 271.055 237.01C271.055 237.596 271.055 238.296 271.055 239.109C271.055 239.923 271.055 240.737 271.055 241.551C271.055 242.365 271.055 243.13 271.055 243.846C271.055 244.562 271.055 245.132 271.055 245.555L271.104 247.85ZM271.104 229.832C272.471 226.837 273.708 223.924 274.814 221.092C275.954 218.227 276.914 215.379 277.695 212.547C278.509 209.715 279.144 206.85 279.6 203.953C280.055 201.023 280.283 197.98 280.283 194.822C280.283 194.301 280.251 193.471 280.186 192.332C280.153 191.193 280.007 190.037 279.746 188.865C279.518 187.693 279.144 186.668 278.623 185.789C278.135 184.91 277.435 184.471 276.523 184.471C275.807 184.471 275.189 184.959 274.668 185.936C274.147 186.88 273.691 188.182 273.301 189.842C272.91 191.469 272.585 193.374 272.324 195.555C272.064 197.736 271.852 200.047 271.689 202.488C271.527 204.93 271.396 207.436 271.299 210.008C271.234 212.579 271.185 215.086 271.152 217.527C271.12 219.936 271.104 222.199 271.104 224.314C271.104 226.43 271.104 228.27 271.104 229.832ZM327.354 246.629C326.54 246.629 325.824 246.564 325.205 246.434C324.717 247.41 324.131 248.322 323.447 249.168C322.764 249.982 321.966 250.698 321.055 251.316C320.176 251.935 319.183 252.423 318.076 252.781C316.969 253.139 315.765 253.318 314.463 253.318C312.933 253.318 311.533 253.042 310.264 252.488C308.994 251.967 307.887 251.235 306.943 250.291C305.999 249.314 305.267 248.159 304.746 246.824C304.225 245.457 303.965 243.96 303.965 242.332C303.965 240.249 304.339 238.442 305.088 236.912C305.837 235.35 306.699 234.064 307.676 233.055C308.652 232.013 309.629 231.248 310.605 230.76C311.582 230.239 312.314 229.979 312.803 229.979C313.356 229.979 313.763 230.125 314.023 230.418C314.316 230.711 314.463 231.102 314.463 231.59C314.463 232.143 314.284 232.566 313.926 232.859C313.6 233.12 313.177 233.38 312.656 233.641C312.135 233.901 311.582 234.275 310.996 234.764C310.41 235.219 309.857 235.805 309.336 236.521C308.848 237.238 308.441 238.084 308.115 239.061C307.79 240.037 307.627 241.128 307.627 242.332C307.627 243.406 307.79 244.415 308.115 245.359C308.441 246.271 308.913 247.068 309.531 247.752C310.15 248.403 310.882 248.924 311.729 249.314C312.575 249.673 313.519 249.852 314.561 249.852C316.416 249.852 317.946 249.428 319.15 248.582C320.387 247.703 321.331 246.596 321.982 245.262C320.062 244.253 318.483 242.82 317.246 240.965C316.009 239.109 315.391 237.026 315.391 234.715C315.391 232.859 315.83 231.346 316.709 230.174C317.62 229.002 318.809 228.416 320.273 228.416C321.152 228.416 321.982 228.628 322.764 229.051C323.545 229.474 324.229 230.141 324.814 231.053C325.433 231.964 325.921 233.136 326.279 234.568C326.637 236.001 326.816 237.71 326.816 239.695C326.816 240.737 326.686 241.827 326.426 242.967C326.621 242.999 326.816 243.016 327.012 243.016C327.207 243.016 327.419 243.016 327.646 243.016C328.753 243.016 329.746 242.885 330.625 242.625C331.504 242.365 332.301 241.974 333.018 241.453C333.734 240.932 334.368 240.265 334.922 239.451C335.508 238.637 336.061 237.693 336.582 236.619C336.68 236.424 336.891 236.245 337.217 236.082C337.542 235.887 337.868 235.789 338.193 235.789C338.617 235.789 339.007 235.968 339.365 236.326C339.756 236.652 339.951 237.091 339.951 237.645C339.951 237.905 339.886 238.198 339.756 238.523C339.626 238.816 339.495 239.093 339.365 239.354C338.812 240.33 338.161 241.274 337.412 242.186C336.696 243.064 335.833 243.846 334.824 244.529C333.848 245.18 332.741 245.701 331.504 246.092C330.267 246.482 328.883 246.661 327.354 246.629ZM319.004 234.324C319.004 234.943 319.085 235.594 319.248 236.277C319.411 236.961 319.655 237.645 319.98 238.328C320.339 238.979 320.762 239.614 321.25 240.232C321.771 240.818 322.373 241.323 323.057 241.746C323.154 241.062 323.203 240.395 323.203 239.744C323.203 238.865 323.138 237.97 323.008 237.059C322.878 236.147 322.682 235.317 322.422 234.568C322.194 233.787 321.901 233.169 321.543 232.713C321.185 232.225 320.762 231.98 320.273 231.98C320.078 231.98 319.818 232.127 319.492 232.42C319.167 232.713 319.004 233.348 319.004 234.324ZM361.533 238.377C361.533 241.372 360.996 243.927 359.922 246.043C358.848 248.159 357.529 249.77 355.967 250.877H356.162C358.083 250.877 359.824 250.454 361.387 249.607C362.982 248.729 364.414 247.622 365.684 246.287C366.953 244.92 368.092 243.406 369.102 241.746C370.111 240.086 371.006 238.475 371.787 236.912C371.95 236.554 372.178 236.277 372.471 236.082C372.796 235.887 373.138 235.789 373.496 235.789C374.049 235.789 374.489 235.984 374.814 236.375C375.14 236.766 375.303 237.189 375.303 237.645C375.303 237.905 375.254 238.149 375.156 238.377C374.31 240.265 373.301 242.169 372.129 244.09C370.957 245.978 369.59 247.687 368.027 249.217C366.465 250.747 364.707 251.984 362.754 252.928C360.801 253.904 358.636 254.393 356.26 254.393C354.535 254.393 352.858 254.116 351.23 253.562C349.603 253.042 348.171 252.212 346.934 251.072C346.478 250.714 346.087 250.34 345.762 249.949C345.436 249.526 345.176 249.135 344.98 248.777C344.915 248.712 344.883 248.647 344.883 248.582C344.688 248.289 344.59 247.98 344.59 247.654C344.59 247.231 344.736 246.84 345.029 246.482C345.062 246.417 345.094 246.385 345.127 246.385C345.16 246.352 345.192 246.32 345.225 246.287C345.55 245.994 345.908 245.831 346.299 245.799H346.445C346.608 245.799 346.722 245.815 346.787 245.848C346.82 245.848 346.836 245.864 346.836 245.896C346.868 245.896 346.901 245.896 346.934 245.896C347.031 245.896 347.145 245.929 347.275 245.994C347.308 246.027 347.34 246.043 347.373 246.043C347.666 246.238 347.91 246.482 348.105 246.775C348.333 247.166 348.594 247.524 348.887 247.85C349.147 248.11 349.456 248.354 349.814 248.582C350.173 248.777 350.579 248.875 351.035 248.875C351.849 248.875 352.663 248.631 353.477 248.143C354.29 247.654 355.023 246.954 355.674 246.043C356.325 245.132 356.846 244.025 357.236 242.723C357.66 241.421 357.871 239.972 357.871 238.377C357.871 237.205 357.741 236.212 357.48 235.398C357.253 234.552 356.943 233.868 356.553 233.348C356.195 232.827 355.804 232.452 355.381 232.225C354.958 231.964 354.551 231.834 354.16 231.834C353.281 231.834 352.386 232.29 351.475 233.201C350.596 234.113 349.717 235.268 348.838 236.668C347.959 238.068 347.08 239.614 346.201 241.307C345.355 242.999 344.492 244.643 343.613 246.238C343.548 251.512 343.451 256.541 343.32 261.326C343.223 266.111 343.027 270.555 342.734 274.656C342.474 278.758 342.1 282.469 341.611 285.789C341.123 289.109 340.456 291.941 339.609 294.285C338.763 296.661 337.721 298.484 336.484 299.754C335.247 301.023 333.734 301.658 331.943 301.658C331.39 301.658 330.755 301.544 330.039 301.316C329.323 301.089 328.656 300.617 328.037 299.9C327.419 299.217 326.898 298.224 326.475 296.922C326.051 295.62 325.84 293.878 325.84 291.697C325.84 288.93 326.182 285.724 326.865 282.078C327.549 278.432 328.525 274.559 329.795 270.457C331.032 266.388 332.513 262.205 334.238 257.908C335.964 253.611 337.868 249.428 339.951 245.359C339.951 244.22 339.951 243.097 339.951 241.99C339.984 240.883 340 239.809 340 238.768C339.577 239.256 339.072 239.5 338.486 239.5C337.933 239.5 337.493 239.305 337.168 238.914C336.842 238.523 336.68 238.1 336.68 237.645C336.68 237.417 336.729 237.173 336.826 236.912C337.607 235.122 338.21 233.429 338.633 231.834C339.056 230.206 339.365 228.79 339.561 227.586C339.788 226.349 339.919 225.372 339.951 224.656C339.984 223.94 340 223.566 340 223.533C340 223.045 340.179 222.622 340.537 222.264C340.895 221.906 341.335 221.727 341.855 221.727C342.344 221.727 342.767 221.906 343.125 222.264C343.483 222.589 343.662 223.012 343.662 223.533V238.523C344.411 237.254 345.16 236.001 345.908 234.764C346.657 233.527 347.438 232.42 348.252 231.443C349.098 230.467 349.993 229.686 350.938 229.1C351.914 228.481 352.988 228.172 354.16 228.172C355.267 228.172 356.276 228.432 357.188 228.953C358.099 229.474 358.88 230.19 359.531 231.102C360.182 232.013 360.671 233.104 360.996 234.373C361.354 235.61 361.533 236.945 361.533 238.377ZM339.854 254.051C338.258 257.632 336.81 261.229 335.508 264.842C334.238 268.455 333.164 271.938 332.285 275.291C331.374 278.644 330.674 281.785 330.186 284.715C329.697 287.645 329.453 290.216 329.453 292.43C329.453 292.983 329.486 293.585 329.551 294.236C329.616 294.887 329.746 295.49 329.941 296.043C330.137 296.596 330.413 297.052 330.771 297.41C331.13 297.801 331.602 297.996 332.188 297.996C333.262 297.996 334.189 297.312 334.971 295.945C335.752 294.611 336.403 292.788 336.924 290.477C337.477 288.198 337.933 285.561 338.291 282.566C338.649 279.604 338.926 276.495 339.121 273.24C339.349 269.985 339.512 266.697 339.609 263.377C339.707 260.089 339.788 256.98 339.854 254.051Z" fill="#16816D"/>
</g>
</svg>
