<svg width="460" height="448" viewBox="0 0 460 448" fill="none" xmlns="http://www.w3.org/2000/svg">
<rect width="460" height="448" rx="20" fill="#072E4A"/>
<path d="M124.791 349V111.85H178.791L179.691 160.45L169.341 165.85C172.341 155.05 178.191 145.3 186.891 136.6C195.591 127.6 205.941 120.4 217.941 115C229.941 109.6 242.241 106.9 254.841 106.9C272.841 106.9 287.841 110.5 299.841 117.7C312.141 124.9 321.291 135.7 327.291 150.1C333.591 164.5 336.741 182.5 336.741 204.1V349H281.391V208.15C281.391 196.15 279.741 186.25 276.441 178.45C273.141 170.35 268.041 164.5 261.141 160.9C254.241 157 245.841 155.2 235.941 155.5C227.841 155.5 220.341 156.85 213.441 159.55C206.841 161.95 200.991 165.55 195.891 170.35C191.091 174.85 187.191 180.1 184.191 186.1C181.491 192.1 180.141 198.7 180.141 205.9V349H152.691C147.291 349 142.191 349 137.391 349C132.891 349 128.691 349 124.791 349Z" fill="url(#paint0_linear_108_2)"/>
<defs>
<linearGradient id="paint0_linear_108_2" x1="229.5" y1="0" x2="229.5" y2="361" gradientUnits="userSpaceOnUse">
<stop stop-color="#4EEBE1"/>
<stop offset="1" stop-color="#829DC6" stop-opacity="0"/>
</linearGradient>
</defs>
</svg>
