<svg width="460" height="448" viewBox="0 0 460 448" fill="none" xmlns="http://www.w3.org/2000/svg">
<rect width="460" height="448" rx="20" fill="#072E4A"/>
<path d="M116.893 383V68H250.993C271.693 68 289.093 71 303.193 77C317.593 83 328.393 92 335.593 104C343.093 115.7 346.843 129.95 346.843 146.75C346.843 164.15 342.193 178.85 332.893 190.85C323.593 202.85 310.543 211.1 293.743 215.6L293.293 206.6C307.393 209.6 319.693 215 330.193 222.8C340.693 230.3 348.793 239.75 354.493 251.15C360.493 262.25 363.493 275 363.493 289.4C363.493 304.7 360.943 318.2 355.843 329.9C351.043 341.6 343.843 351.35 334.243 359.15C324.643 366.95 313.243 372.95 300.043 377.15C286.843 381.05 271.993 383 255.493 383H116.893ZM174.043 330.35H252.793C263.893 330.35 273.193 328.7 280.693 325.4C288.493 322.1 294.343 317.3 298.243 311C302.443 304.4 304.543 296.6 304.543 287.6C304.543 279.2 302.293 272 297.793 266C293.593 260 287.443 255.5 279.343 252.5C271.243 249.2 261.643 247.55 250.543 247.55H174.043V330.35ZM174.043 197.15H245.593C254.293 197.15 261.793 195.5 268.093 192.2C274.693 188.9 279.793 184.4 283.393 178.7C286.993 173 288.793 166.4 288.793 158.9C288.793 146.9 284.743 137.6 276.643 131C268.543 124.1 256.693 120.65 241.093 120.65H174.043V197.15Z" fill="url(#paint0_linear_108_2)"/>
<defs>
<linearGradient id="paint0_linear_108_2" x1="229.5" y1="34" x2="229.5" y2="395" gradientUnits="userSpaceOnUse">
<stop stop-color="#4EEBE1"/>
<stop offset="1" stop-color="#829DC6" stop-opacity="0"/>
</linearGradient>
</defs>
</svg>
