<svg width="501" height="482" viewBox="0 0 501 482" fill="none" xmlns="http://www.w3.org/2000/svg">
<g clip-path="url(#clip0_112_2)">
<rect width="501" height="482" rx="241" fill="#072E4A"/>
<path d="M149.087 363V126.75H195.437V175.35L187.337 180.75C190.337 170.25 196.187 160.65 204.887 151.95C213.587 142.95 223.937 135.75 235.937 130.35C247.937 124.65 260.237 121.8 272.837 121.8C290.837 121.8 305.837 125.4 317.837 132.6C329.837 139.5 338.837 150.15 344.837 164.55C350.837 178.95 353.837 197.1 353.837 219V363H307.487V222.15C307.487 208.65 305.687 197.55 302.087 188.85C298.487 179.85 292.937 173.4 285.437 169.5C277.937 165.3 268.637 163.5 257.537 164.1C248.537 164.1 240.287 165.6 232.787 168.6C225.287 171.3 218.687 175.2 212.987 180.3C207.587 185.4 203.237 191.4 199.937 198.3C196.937 204.9 195.437 212.1 195.437 219.9V363H172.487C168.587 363 164.687 363 160.787 363C156.887 363 152.987 363 149.087 363Z" fill="white"/>
</g>
<defs>
<clipPath id="clip0_112_2">
<rect width="501" height="482" rx="241" fill="white"/>
</clipPath>
</defs>
</svg>
